@startuml

title __Tower Defense Class Diagram__\n

  package de.dhbw {

    enum de.dhbw.ImageElevation #orange {
      ANIMATION
      BULLET
      ENEMIES
      LIFE_BAR
      RANGE_INDICATOR
      elevation
    }

    package de.dhbw.activities {

      class de.dhbw.activities.DifficultyFragment #lightblue {
        {static} - FRAGMENT_EASY : int
        {static} - FRAGMENT_HARD : int
        {static} - FRAGMENT_MEDIUM : int
        - changeLeftButton : Button
        - changeRightButton : Button
        - textDifficultyDescription : TextView
        - textDifficultyHeader : TextView
        - textValueBuiltTowers : TextView
        - textValueEnemiesKilled : TextView
        - textValueMaxWave : TextView
        - textValueMoneySpent : TextView
        - textValueUpgrades : TextView
        + DifficultyFragment()
        + onCreateView()
        - setEasyInformation()
        - setHardInformation()
        - setMediumInformation()
      }

      class de.dhbw.activities.GameActivity #lightblue {
        {static} - AUTO_HIDE : boolean
        {static} - AUTO_HIDE_DELAY_MILLIS : int
        {static} - UI_ANIMATION_DELAY : int
        - mContentView : View
        - mControlsView : View
        - mDelayHideTouchListener : OnTouchListener
        - mHideHandler : Handler
        - mHidePart2Runnable : Runnable
        - mHideRunnable : Runnable
        - mShowPart2Runnable : Runnable
        - mVisible : boolean
        - mapLayout : FrameLayout
        - mediaPlayer : MediaPlayer
        - textCurrentWave : TextView
        - textLifePoints : TextView
        - textMoney : TextView
        - textWaveRemaining : TextView
        + addView()
        + getGame()
        + getMapFrameLayout()
        + getMediaPlayer()
        + onBackPressed()
        + onOptionsItemSelected()
        + removeView()
        + returnToMainMenu()
        + setCurrentWaveNumber()
        + setForeGround()
        + setImageResource()
        + setLifePoints()
        + setMoney()
        + setWaveTimeRemaining()
        + showBuilder()
        + startAnimator()
        # onCreate()
        # onPostCreate()
        - delayedHide()
        - hide()
        - setupAndroidFullscreenAndLayout()
        - show()
        - toggle()
      }

      class de.dhbw.activities.MainActivity #lightblue {
        - mediaPlayer : MediaPlayer
        + toggle()
        # onCreate()
      }

    }

    package de.dhbw.game {

      abstract class de.dhbw.game.ATimerUsage #orange {
        # lastTimeActionMillis : long
        - delay : long
        {abstract} + calculateDelay()
        + getDelay()
        + setLastTimeActionMillis()
        # setDelay()
      }

      enum Difficulty #orange {
        EASY
        HARD
        MEDIUM
        difficultyAsNumber
      }

      enum EnemyType #orange {
        BOSS_TANK
        CAR
        PLANE
        TANK
        label
      }

      class de.dhbw.game.Game #lightgreen {
        - clickedButton : Optional<Button>
        - currentWaveNumber : int
        - gameSettings : Map<Settings, Boolean>
        - gameTimer : Timer
        - isMenuOpen : boolean
        - lastEnemyOfWaveSpawned : boolean
        - lastWaveOut : boolean
        - lifePoints : int
        - money : int
        - moneySpent : int
        - numberOfBuiltTowers : int
        - numberOfEnemiesKilled : int
        - numberOfUpgrades : int
        - showCircle : boolean
        - spawnButton : Button
        - waveTimer : Timer
        + Game()
        + addMoney()
        + allEnemiesSpawned()
        + buildTower()
        + closeMenu()
        + continueTimers()
        + createNewTowerOnField()
        + decreaseLifePoints()
        + getLifePoints()
        + getMapStructure()
        + getMatchField()
        + getMoney()
        + getPositionFromButtonId()
        + increaseMoneySpent()
        + increaseNumberOfBuiltTowers()
        + increaseNumberOfEnemiesKilled()
        + init()
        + isAnimationOn()
        + isSoundOn()
        + loseActions()
        + openSettings()
        + openTowerPopup()
        + pauseTimers()
        + sellTower()
        + setAnimationOn()
        + setCircle()
        + setIngameSound()
        + setLifePoints()
        + setMenu()
        + setMoney()
        + start()
        + startNextWave()
        + stop()
        + subMoney()
        + toggleMusic()
        + updateStatisticsIfHighScore()
        + upgradeTower()
        + winActions()
        - generateButtonsOnMap()
        - loadSettings()
        - showGameFinishedDialog()
        - startWave()
        - triggerSpawnButtonImageChange()
        - updateStatusBar()
      }

      interface de.dhbw.game.IMoneyListener #lightgreen {
        {abstract} + performMoneyUpdate()
      }

      interface de.dhbw.game.IStatusBar #lightgreen {
        {abstract} + setCurrentWaveNumber()
        {abstract} + setLifePoints()
        {abstract} + setMoney()
        {abstract} + setWaveTimeRemaining()
      }

      class de.dhbw.game.MusicPlayer #orange {
        - isStarted : boolean
        - loopTime : int
        - mediaPlayer : MediaPlayer
        - on : boolean
        - timer : Timer
        - timerTask : TimerTask
        + MusicPlayer()
        + calculateDelay()
        + isStarted()
        + startMusicPlayer()
        + stop()
        + toggle()
      }

      class de.dhbw.game.StatusBarCountDownTimer #orange {
        - seconds : int
        - timer : Timer
        + StatusBarCountDownTimer()
        + stopTimer()
        + timer()
        - setTime()
      }

      package de.dhbw.game.match {

        abstract class de.dhbw.game.match.AMatch #orange {
          - count : int
          - extendable : boolean
          - startMoney : int
          - waveTime : int
          - waves : List<AWave>
          + calculateDelay()
          {abstract} + create()
          + getCurrent()
          + getCurrentWaveNumber()
          + getDifficulty()
          + getStartMoney()
          + getWaveTime()
          + hasNext()
          + next()
          ~ AMatch()
          ~ addWaves()
        }

        class de.dhbw.game.match.EasyMatch #orange {
          {static} - startMoney : int
          {static} - w10_Car : WaveComposition
          {static} - w10_Tank : WaveComposition
          {static} - w10_TankBoss : WaveComposition
          {static} - w11_Car : WaveComposition
          {static} - w11_Plane : WaveComposition
          {static} - w11_Tank : WaveComposition
          {static} - w12_Tank : WaveComposition
          {static} - w13_Car : WaveComposition
          {static} - w14_Car : WaveComposition
          {static} - w14_Tank : WaveComposition
          {static} - w15_Car : WaveComposition
          {static} - w15_Tank : WaveComposition
          {static} - w16_Plane : WaveComposition
          {static} - w17_Car : WaveComposition
          {static} - w17_Tank : WaveComposition
          {static} - w18_Car : WaveComposition
          {static} - w18_Plane : WaveComposition
          {static} - w18_Tank : WaveComposition
          {static} - w19_Tank : WaveComposition
          {static} - w1_Car : WaveComposition
          {static} - w20_TankBoss : WaveComposition
          {static} - w21_Car : WaveComposition
          {static} - w22_Tank : WaveComposition
          {static} - w23_Plane : WaveComposition
          {static} - w24_Car : WaveComposition
          {static} - w24_Plane : WaveComposition
          {static} - w24_Tank : WaveComposition
          {static} - w25_TankBoss : WaveComposition
          {static} - w26_Car : WaveComposition
          {static} - w27_Tank : WaveComposition
          {static} - w28_Car : WaveComposition
          {static} - w28_Tank : WaveComposition
          {static} - w29_Plane : WaveComposition
          {static} - w2_Tank : WaveComposition
          {static} - w30_TankBoss : WaveComposition
          {static} - w3_Car : WaveComposition
          {static} - w4_Tank : WaveComposition
          {static} - w5_Plane : WaveComposition
          {static} - w6_Tank : WaveComposition
          {static} - w7_Car : WaveComposition
          {static} - w7_Tank : WaveComposition
          {static} - w8_Tank : WaveComposition
          {static} - w9_Car : WaveComposition
          {static} - w9_Tank : WaveComposition
          {static} - waveSpeed : int
          {static} - waveTime : int
          + EasyMatch()
          + create()
        }

        class de.dhbw.game.match.HardMatch #orange {
          {static} - startMoney : int
          {static} - w10_TankBoss : WaveComposition
          {static} - w11_Tank : WaveComposition
          {static} - w12_Car : WaveComposition
          {static} - w13_Plane : WaveComposition
          {static} - w14_Car : WaveComposition
          {static} - w14_Tank : WaveComposition
          {static} - w15_Car : WaveComposition
          {static} - w15_Plane : WaveComposition
          {static} - w15_Tank : WaveComposition
          {static} - w15_TankBoss : WaveComposition
          {static} - w16_Car : WaveComposition
          {static} - w17_Car : WaveComposition
          {static} - w17_Tank : WaveComposition
          {static} - w18_Plane : WaveComposition
          {static} - w18_Tank : WaveComposition
          {static} - w19_Tank : WaveComposition
          {static} - w1_Plane : WaveComposition
          {static} - w20_TankBoss : WaveComposition
          {static} - w21_Car : WaveComposition
          {static} - w21_Tank : WaveComposition
          {static} - w22_Plane : WaveComposition
          {static} - w23_Car : WaveComposition
          {static} - w23_Plane : WaveComposition
          {static} - w23_Tank : WaveComposition
          {static} - w24_Car : WaveComposition
          {static} - w25_TankBoss : WaveComposition
          {static} - w26_Tank : WaveComposition
          {static} - w27_Car : WaveComposition
          {static} - w27_Tank : WaveComposition
          {static} - w28_Car : WaveComposition
          {static} - w28_Plane : WaveComposition
          {static} - w28_Tank : WaveComposition
          {static} - w29_Car : WaveComposition
          {static} - w29_Tank : WaveComposition
          {static} - w2_Tank : WaveComposition
          {static} - w30_Car : WaveComposition
          {static} - w30_Plane : WaveComposition
          {static} - w30_TankBoss : WaveComposition
          {static} - w31_Tank : WaveComposition
          {static} - w32_Car : WaveComposition
          {static} - w33_Tank : WaveComposition
          {static} - w34_Plane : WaveComposition
          {static} - w35_Car : WaveComposition
          {static} - w35_Tank : WaveComposition
          {static} - w35_TankBoss : WaveComposition
          {static} - w36_Car : WaveComposition
          {static} - w36_Plane : WaveComposition
          {static} - w37_Car : WaveComposition
          {static} - w37_Tank : WaveComposition
          {static} - w38_TankBoss : WaveComposition
          {static} - w39_Car : WaveComposition
          {static} - w39_Plane : WaveComposition
          {static} - w39_Tank : WaveComposition
          {static} - w3_Car : WaveComposition
          {static} - w40_Plane : WaveComposition
          {static} - w40_TankBoss : WaveComposition
          {static} - w41_Tank : WaveComposition
          {static} - w41_TankBoss : WaveComposition
          {static} - w42_Car : WaveComposition
          {static} - w43_Tank : WaveComposition
          {static} - w44_Plane : WaveComposition
          {static} - w45_Car : WaveComposition
          {static} - w45_Plane : WaveComposition
          {static} - w45_Tank : WaveComposition
          {static} - w46_Car : WaveComposition
          {static} - w46_Tank : WaveComposition
          {static} - w46_TankBoss : WaveComposition
          {static} - w47_Car : WaveComposition
          {static} - w47_Tank : WaveComposition
          {static} - w48_Plane : WaveComposition
          {static} - w49_Car : WaveComposition
          {static} - w49_Tank : WaveComposition
          {static} - w4_Car : WaveComposition
          {static} - w4_Tank : WaveComposition
          {static} - w50_TankBoss : WaveComposition
          {static} - w5_TankBoss : WaveComposition
          {static} - w6_Car : WaveComposition
          {static} - w6_Tank : WaveComposition
          {static} - w7_Car : WaveComposition
          {static} - w7_Plane : WaveComposition
          {static} - w7_Tank : WaveComposition
          {static} - w8_Tank : WaveComposition
          {static} - w9_Car : WaveComposition
          {static} - waveSpeed : int
          {static} - waveTime : int
          + HardMatch()
          + create()
        }

        class de.dhbw.game.match.MediumMatch #orange {
          {static} - startMoney : int
          {static} - w10_TankBoss : WaveComposition
          {static} - w11_Tank : WaveComposition
          {static} - w12_Car : WaveComposition
          {static} - w13_Plane : WaveComposition
          {static} - w14_Car : WaveComposition
          {static} - w14_Tank : WaveComposition
          {static} - w15_Car : WaveComposition
          {static} - w15_Plane : WaveComposition
          {static} - w15_Tank : WaveComposition
          {static} - w15_TankBoss : WaveComposition
          {static} - w16_Car : WaveComposition
          {static} - w17_Car : WaveComposition
          {static} - w17_Tank : WaveComposition
          {static} - w18_Plane : WaveComposition
          {static} - w18_Tank : WaveComposition
          {static} - w19_Tank : WaveComposition
          {static} - w1_Tank : WaveComposition
          {static} - w20_TankBoss : WaveComposition
          {static} - w21_Car : WaveComposition
          {static} - w21_Tank : WaveComposition
          {static} - w22_Plane : WaveComposition
          {static} - w23_Car : WaveComposition
          {static} - w23_Plane : WaveComposition
          {static} - w23_Tank : WaveComposition
          {static} - w24_Car : WaveComposition
          {static} - w25_TankBoss : WaveComposition
          {static} - w26_Tank : WaveComposition
          {static} - w27_Car : WaveComposition
          {static} - w27_Tank : WaveComposition
          {static} - w28_Car : WaveComposition
          {static} - w28_Plane : WaveComposition
          {static} - w28_Tank : WaveComposition
          {static} - w29_Car : WaveComposition
          {static} - w29_Tank : WaveComposition
          {static} - w2_Tank : WaveComposition
          {static} - w30_Car : WaveComposition
          {static} - w30_Plane : WaveComposition
          {static} - w30_TankBoss : WaveComposition
          {static} - w31_Tank : WaveComposition
          {static} - w32_Car : WaveComposition
          {static} - w33_Tank : WaveComposition
          {static} - w34_Plane : WaveComposition
          {static} - w35_Car : WaveComposition
          {static} - w35_Tank : WaveComposition
          {static} - w35_TankBoss : WaveComposition
          {static} - w36_Car : WaveComposition
          {static} - w36_Plane : WaveComposition
          {static} - w37_Car : WaveComposition
          {static} - w37_Tank : WaveComposition
          {static} - w38_TankBoss : WaveComposition
          {static} - w39_Car : WaveComposition
          {static} - w39_Plane : WaveComposition
          {static} - w39_Tank : WaveComposition
          {static} - w3_Car : WaveComposition
          {static} - w40_Plane : WaveComposition
          {static} - w40_TankBoss : WaveComposition
          {static} - w4_Plane : WaveComposition
          {static} - w5_TankBoss : WaveComposition
          {static} - w6_Car : WaveComposition
          {static} - w6_Tank : WaveComposition
          {static} - w7_Car : WaveComposition
          {static} - w7_Plane : WaveComposition
          {static} - w7_Tank : WaveComposition
          {static} - w8_Tank : WaveComposition
          {static} - w9_Car : WaveComposition
          {static} - waveSpeed : int
          {static} - waveTime : int
          + MediumMatch()
          + create()
        }

      }

      package de.dhbw.game.popups {

        abstract class de.dhbw.game.popups.AMenu #lightblue {
          - mainLayout : LinearLayout
          - menuLayout : LinearLayout
          + addViewToPopUp()
          + closeWindow()
          + removeViewFromPopUp()
          + setHeader()
          # getMenuLayout()
          # onCreate()
        }

        class de.dhbw.game.popups.MenuSettings #lightblue {
          {static} + gameActivity : GameActivity
          {static} - menuSettingsLayout : LinearLayout
          + finish()
          + initViews()
          + toggle()
          # onCreate()
        }

        class de.dhbw.game.popups.MenuTowerSelection #lightblue {
          {static} + game : Game
          + buildTower()
          + closeWindow()
          + performMoneyUpdate()
          # onCreate()
        }

        class de.dhbw.game.popups.MenuUpgradeAndSell #lightblue {
          {static} + game : Game
          - level : int
          - maxLevel : int
          - towerCost : int
          - towerDamage : int
          - towerDrawable : int
          - towerFireRate : int
          - towerRange : int
          - towerType : String
          - upgradeCost : int
          - upgradeDamage : int
          - upgradeFireRate : int
          - upgradeRange : int
          + initializeView()
          + performMoneyUpdate()
          + sellTower()
          + upgradeTower()
          # onCreate()
        }

      }

      package de.dhbw.game.settings {

        interface de.dhbw.game.settings.ISettingsManager #orange {
          {abstract} + toggle()
        }

        enum Settings #orange {
          ANIMATIONS
          INGAME_SOUND
          MUSIC
        }

        class de.dhbw.game.settings.SettingsToggleButton #lightblue {
          + SettingsToggleButton()
        }

      }

      package de.dhbw.game.wave {

        abstract class de.dhbw.game.wave.AWave #orange {
          - count : int
          - enemies : List<AEnemy>
          - speed : int
          + calculateDelay()
          {abstract} + generate()
          + getWaveSpeed()
          + hasNext()
          + next()
          ~ AWave()
          ~ addEnemy()
        }

        class de.dhbw.game.wave.Wave #orange {
          - waveCompositions : List<WaveComposition>
          + Wave()
          + addWaveCompositions()
          + generate()
        }

        class de.dhbw.game.wave.WaveComposition #orange {
          - amount : int
          - level : int
          + WaveComposition()
          + getAmount()
          + getEnemyType()
          + getLevel()
        }

      }

    }

    package de.dhbw.map {

      package de.dhbw.map.matchfield {

        class de.dhbw.map.matchfield.MatchField #lightgreen {
          - enemies : List<AEnemy>
          - towers : List<ATower>
          + MatchField()
          + addEnemy()
          + addTower()
          + checkForFinishedGame()
          + continueTimers()
          {static} + getDistance()
          + getTower()
          + pauseTimers()
          + removeDeadEnemy()
          + removeEnemiesInTarget()
          + removeTower()
          + slowEnemy()
          + startEnemyMovement()
          + startTowerFire()
          + stopTimer()
          + stopTimer()
          - explode()
          - getEnemy()
          - getEnemyUUIDs()
          - getTower()
          - removeEnemy()
          - removeImageViewOfEnemy()
          - removeTower()
          - spawnCarIfEnemyIsBossTank()
        }

      }

      package de.dhbw.map.objects {

        package de.dhbw.map.objects.bullet {

          abstract class de.dhbw.map.objects.bullet.ABullet #orange {
            # damage : int
            # x : int
            # y : int
            - bulletImage : ImageView
            - bulletSpeed : int
            + ABullet()
            + ABullet()
            + getBulletSpeed()
            + setBulletSpeed()
            + start()
            # hitEnemy()
            # setMidpointOfPositions()
            # startAnimation()
            # startLogicalShooting()
            ~ applyBulletOffset()
            ~ getBulletRotation()
          }

          class de.dhbw.map.objects.bullet.Bomb #orange {
            - allEnemies : List<AEnemy>
            - range : int
            + Bomb()
            + Bomb()
            + Bomb()
            + getEnemiesToHit()
            # hitEnemy()
            - explode()
          }

          class de.dhbw.map.objects.bullet.LaserRay #orange {
            - allEnemies : List<AEnemy>
            - canvas : Canvas
            - isAlive : boolean
            - killBullet : boolean
            + LaserRay()
            + isAlive()
            {static} + isEnemyHitOnPosition()
            + killBullet()
            # hitEnemy()
            # setMidpointOfPositions()
            # startAnimation()
            # startLogicalShooting()
            ~ applyBulletOffset()
            {static} ~ doIntersect()
            {static} ~ onSegment()
            {static} ~ orientation()
            - getVectorX()
            - getVectorY()
            - sparkle()
          }

          class de.dhbw.map.objects.bullet.LaserRay.LaserView #lightblue {
            ~ paint : Paint
            + LaserView()
            + LaserView()
            + LaserView()
            + LaserView()
            + onDraw()
            + reDraw()
            - init()
          }

          class de.dhbw.map.objects.bullet.PlasmaBall #orange {
            - enemies : List<AEnemy>
            - range : int
            + PlasmaBall()
            + PlasmaBall()
            # hitEnemy()
            - isNextEnemyInRange()
          }

          class de.dhbw.map.objects.bullet.Projectile #orange {
            + Projectile()
            + Projectile()
            + Projectile()
          }

          class de.dhbw.map.objects.bullet.SnowFlake #orange {
            - slowness : int
            + SnowFlake()
            + SnowFlake()
            + SnowFlake()
            # hitEnemy()
          }

        }

        package de.dhbw.map.objects.enemy {

          abstract class de.dhbw.map.objects.enemy.AEnemy #orange {
            - healthpoints : int
            - isAlive : boolean
            - isPaused : boolean
            - label : String
            - lifePointsCosts : int
            - movedSteps : int
            - progress : int
            - reachedTarget : boolean
            - slowness : int
            - speed : int
            - timerTask : TimerTask
            - uuid : UUID
            - value : int
            - x : int
            - y : int
            + AEnemy()
            + AEnemy()
            + getAndReduceSlowness()
            + getDirection()
            + getEnemyView()
            + getHealthPoints()
            + getLabel()
            + getLifePointsCosts()
            + getMovedSteps()
            + getPosition()
            + getPositionX()
            + getPositionY()
            + getProgress()
            + getSlowness()
            + getSpeed()
            + getTimerTask()
            + getType()
            + getUuid()
            + getValue()
            + isAlive()
            + isFullSpeed()
            + isPaused()
            + move()
            + moveTo()
            + moveToPosition()
            + reachedTarget()
            + reduceHealthPoints()
            + setHealthpoints()
            + setPaused()
            + setProgress()
            + setTimerTask()
            + slowDown()
            # getEnemyField()
          }

          class de.dhbw.map.objects.enemy.BossTank #orange {
            - level : int
            + BossTank()
            + BossTank()
            {static} + getBossTankHealthpointsByLevel()
            + getCar()
            + getLevel()
            {static} - getBossTankValueByLevel()
          }

          class de.dhbw.map.objects.enemy.Car #orange {
            + Car()
            + Car()
            {static} - getCarHealthpointsByLevel()
            {static} - getCarLifePointsCostsByLevel()
            {static} - getCarSpeedByLevel()
            {static} - getCarValueByLevel()
          }

          class de.dhbw.map.objects.enemy.EnemyView #lightblue {
            - enemyHitImageID : int
            - enemyImageID : int
            - enemyLayout : RelativeLayout
            - image : ImageView
            - lifeBar : ProgressBar
            - timer : Timer
            + EnemyView()
            + EnemyView()
            + getLayout()
            + hitAnimation()
            + setHealthProgress()
            + setPosition()
            # resolveRotation()
            - createEnemyLayoutWithLifeBar()
          }

          class de.dhbw.map.objects.enemy.Plane #orange {
            + Plane()
            + Plane()
            # getEnemyField()
            {static} - getPlaneHealthpointsByLevel()
            {static} - getPlaneLifePointsCostsByLevel()
            {static} - getPlaneSpeedByLevel()
            {static} - getPlaneValueByLevel()
          }

          class de.dhbw.map.objects.enemy.Tank #orange {
            # timer : Timer
            + Tank()
            + Tank()
            + Tank()
            {static} + getTankLifePointsCostsByLevel()
            {static} + getTankSpeedByLevel()
            {static} - getTankHealthpointsByLevel()
            {static} - getTankValueByLevel()
          }

        }

        package de.dhbw.map.objects.tower {

          abstract class de.dhbw.map.objects.tower.ATower #orange {
            # damage : int
            # headImage : Optional<ImageView>
            - baseImage : ImageView
            - costs : int
            - fireRate : int
            - id : UUID
            - level : int
            - range : int
            - starlvlFour : ImageView
            - starlvlThree : ImageView
            - starlvlTwo : ImageView
            - task : TimerTask
            - x : int
            - y : int
            + ATower()
            + calculateDelay()
            {static} + filterPlaneIfTowerCannotFocus()
            + fire()
            + getBaseImage()
            + getCosts()
            {abstract} + getCosts()
            + getDamage()
            {abstract} + getDamage()
            + getField()
            + getFireRate()
            {abstract} + getFireRate()
            + getHeadImage()
            + getId()
            + getLevel()
            + getNearestEnemy()
            + getPosition()
            + getPositionX()
            + getPositionY()
            + getRange()
            {abstract} + getRange()
            + getStarlvlFour()
            + getStarlvlThree()
            + getStarlvlTwo()
            + getTask()
            + getTowerType()
            + isEnemyInRange()
            + rotateImage()
            + setBaseImage()
            + setHeadImage()
            + setTask()
            # getFocusableEnemies()
          }

          class de.dhbw.map.objects.tower.TowerArtillery #orange {
            - artilleryTowerImage : ImageView
            + TowerArtillery()
            + TowerArtillery()
            + fire()
            + getCosts()
            + getDamage()
            + getFireRate()
            + getRange()
            {static} + getTowerArtilleryCostsByLevel()
            {static} - getTowerArtilleryDamageByLevel()
            {static} - getTowerArtilleryFirerateByLevel()
            {static} - getTowerArtilleryRangeByLevel()
          }

          class de.dhbw.map.objects.tower.TowerBoombastic #orange {
            + TowerBoombastic()
            + TowerBoombastic()
            + fire()
            + getCosts()
            + getDamage()
            + getFireRate()
            + getRange()
            {static} + getTowerBoombasticCostsByLevel()
            {static} - getTowerBoombasticDamageByLevel()
            {static} - getTowerBoombasticFirerateByLevel()
            {static} - getTowerBoombasticRangeByLevel()
          }

          class de.dhbw.map.objects.tower.TowerFreezer #orange {
            - slowness : int
            + TowerFreezer()
            + TowerFreezer()
            + fire()
            + getCosts()
            + getDamage()
            + getFireRate()
            {static} + getFreezerCostsByLevel()
            + getRange()
            + getSlowness()
            {static} - getFreezerDamageByLevel()
            {static} - getFreezerFirerateByLevel()
            {static} - getFreezerRangeByLevel()
            {static} - getFreezerSlownessByLevel()
          }

          class de.dhbw.map.objects.tower.TowerLaser #orange {
            + TowerLaser()
            + fire()
            + getCosts()
            + getDamage()
            + getFireRate()
            + getRange()
            + removeBullet()
            {static} - getLaserCostsByLevel()
            {static} - getLaserDamageByLevel()
            {static} - getLaserFireRateByLevel()
            {static} - getLaserRangeByLevel()
          }

          class de.dhbw.map.objects.tower.TowerPlasmarizer #orange {
            - plasmaRange : int
            + TowerPlasmarizer()
            + fire()
            + getCosts()
            + getDamage()
            + getFireRate()
            + getRange()
            {static} - getPlasmarizerCostsByLevel()
            {static} - getPlasmarizerDamageByLevel()
            {static} - getPlasmarizerFirerateByLevel()
            {static} - getPlasmarizerRangeByLevel()
          }

          enum TowerType #orange {
            ARTILLERY
            ASSAULTLASER
            BOOMBASTIC
            FREEZER
            PLASMARIZER
            drawable
            price
            type
          }

        }

      }

      package de.dhbw.map.structure {

        class de.dhbw.map.structure.Field #orange {
          - sizeInPx : int
          - xCoord : int
          - yCoord : int
          + Field()
          + Field()
          + equals()
          + getFieldDescription()
          + getFieldPosition()
          + getFieldPositionX()
          + getFieldPositionY()
          + getId()
          + getPixelCoordX()
          + getPixelCoordY()
          + getSizeInPx()
          + getSpawnPoint()
          + hashCode()
          + setFieldDescription()
        }

        enum FieldDescription #orange {
          FREE
          PATH
          SPAWN
          TOWER
          label
        }

        class de.dhbw.map.structure.MapStructure #orange {
          - fields : Map<String, Field>
          {static} - path : Position[]
          + MapStructure()
          {static} + calculatePath()
          + getField()
          + getFieldForEnemy()
          + getFieldForPlane()
          + getFields()
          {static} + getPathNumber()
          - createPath()
        }

      }

    }

    package de.dhbw.util {

      class de.dhbw.util.AdvancedTimer #orange {
        ~ isCanceled : boolean
        ~ timer : Timer
        + cancel()
        + isCanceled()
        + schedule()
        + scheduleAtFixedRate()
      }

      class de.dhbw.util.Constants #orange {
        {static} + AMOUNT_COLUMNS : int
        {static} + AMOUNT_ROWS : int
        {static} + BOMB_RANGE : int
        {static} + BULLET_SIZE_PARAMS : LayoutParams
        {static} + BULLET_SPEED : int
        {static} + CAR_ENEMY_SIZE_PARAMS : LayoutParams
        {static} + CAR_HEALTHPOINTS : int
        {static} + CAR_LIFE_POINT_COSTS : int
        {static} + CAR_SPEED : int
        {static} + CAR_VALUE : int
        {static} + DRAWABLE_BULLET : int
        {static} + DRAWABLE_BULLET_BOOMBASTIC : int
        {static} + DRAWABLE_BULLET_FREEZER : int
        {static} + DRAWABLE_BULLET_PLASMARIZER : int
        {static} + DRAWABLE_CAR : int
        {static} + DRAWABLE_CAR_HITTED : int
        {static} + DRAWABLE_FIELD_ON_CLICK_PLUS : int
        {static} + DRAWABLE_FIELD_TRANSPARENT : int
        {static} + DRAWABLE_PATH_HORIZONTAL : int
        {static} + DRAWABLE_PATH_LEFT_DOWN : int
        {static} + DRAWABLE_PATH_LEFT_UP : int
        {static} + DRAWABLE_PATH_RIGHT_DOWN : int
        {static} + DRAWABLE_PATH_RIGHT_UP : int
        {static} + DRAWABLE_PATH_VERTICAL : int
        {static} + DRAWABLE_PLANE : int
        {static} + DRAWABLE_PLANE_HITTED : int
        {static} + DRAWABLE_TANK : int
        {static} + DRAWABLE_TANK_BOSS : int
        {static} + DRAWABLE_TANK_BOSS_HITTED : int
        {static} + DRAWABLE_TANK_HITTED : int
        {static} + DRAWABLE_TOWER_ARTILLERY : int
        {static} + DRAWABLE_TOWER_ASSAULTLASER : int
        {static} + DRAWABLE_TOWER_ASSAULTLASER_BASE : int
        {static} + DRAWABLE_TOWER_ASSAULTLASER_HEAD : int
        {static} + DRAWABLE_TOWER_BOOMBASTIC : int
        {static} + DRAWABLE_TOWER_BOOMBASTIC_BASE : int
        {static} + DRAWABLE_TOWER_BOOMBASTIC_HEAD : int
        {static} + DRAWABLE_TOWER_FREEZER_BASE : int
        {static} + DRAWABLE_TOWER_FREEZER_HEAD : int
        {static} + DRAWABLE_TOWER_PLASMARIZER_BASE : int
        {static} + ENEMY_LAYOUT_SIZE_PARAMS : LayoutParams
        {static} + FIELD_SIZE : int
        {static} + ICON_ANIMATION_OFF : int
        {static} + ICON_ANIMATION_ON : int
        {static} + ICON_MUSIC_OFF : int
        {static} + ICON_MUSIC_ON : int
        {static} + ICON_SOUND_OFF : int
        {static} + ICON_SOUND_ON : int
        {static} + PLANE_ENEMY_SIZE_PARAMS : LayoutParams
        {static} + PLANE_HEALTHPOINTS : int
        {static} + PLANE_LIFE_POINT_COSTS : int
        {static} + PLANE_SPEED : int
        {static} + PLANE_VALUE : int
        {static} + STATUS_OFF : String
        {static} + STATUS_ON : String
        {static} + TANK_ENEMY_SIZE_PARAMS : LayoutParams
        {static} + TANK_HEALTHPOINTS : int
        {static} + TANK_LIFE_POINT_COSTS : int
        {static} + TANK_SPEED : int
        {static} + TANK_VALUE : int
        {static} + TOWER_ARTILLERY_LEVEL_1_COSTS : int
        {static} + TOWER_ARTILLERY_LEVEL_1_DAMAGE : int
        {static} + TOWER_ARTILLERY_LEVEL_1_FIRERATE_IN_SECONDS : int
        {static} + TOWER_ARTILLERY_LEVEL_1_RANGE_IN_PIXELS : int
        {static} + TOWER_ARTILLERY_LEVEL_1_TOWER_SIZE_PARAMS : LayoutParams
        {static} + TOWER_ARTILLERY_LEVEL_2_COSTS : int
        {static} + TOWER_ARTILLERY_LEVEL_2_DAMAGE : int
        {static} + TOWER_ARTILLERY_LEVEL_2_FIRERATE_IN_SECONDS : int
        {static} + TOWER_ARTILLERY_LEVEL_2_RANGE_IN_PIXELS : int
        {static} + TOWER_ARTILLERY_LEVEL_3_COSTS : int
        {static} + TOWER_ARTILLERY_LEVEL_3_DAMAGE : int
        {static} + TOWER_ARTILLERY_LEVEL_3_FIRERATE_IN_SECONDS : int
        {static} + TOWER_ARTILLERY_LEVEL_3_RANGE_IN_PIXELS : int
        {static} + TOWER_ARTILLERY_LEVEL_4_COSTS : int
        {static} + TOWER_ARTILLERY_LEVEL_4_DAMAGE : int
        {static} + TOWER_ARTILLERY_LEVEL_4_FIRERATE_IN_SECONDS : int
        {static} + TOWER_ARTILLERY_LEVEL_4_RANGE_IN_PIXELS : int
        {static} + TOWER_BOOMBASTIC_LEVEL_1_COSTS : int
        {static} + TOWER_BOOMBASTIC_LEVEL_1_DAMAGE : int
        {static} + TOWER_BOOMBASTIC_LEVEL_1_FIRERATE_IN_SECONDS : int
        {static} + TOWER_BOOMBASTIC_LEVEL_1_RANGE_IN_PIXELS : int
        {static} + TOWER_BOOMBASTIC_LEVEL_1_TOWER_SIZE_PARAMS : LayoutParams
        {static} + TOWER_BOOMBASTIC_LEVEL_2_COSTS : int
        {static} + TOWER_BOOMBASTIC_LEVEL_2_DAMAGE : int
        {static} + TOWER_BOOMBASTIC_LEVEL_2_FIRERATE_IN_SECONDS : int
        {static} + TOWER_BOOMBASTIC_LEVEL_2_RANGE_IN_PIXELS : int
        {static} + TOWER_BOOMBASTIC_LEVEL_3_COSTS : int
        {static} + TOWER_BOOMBASTIC_LEVEL_3_DAMAGE : int
        {static} + TOWER_BOOMBASTIC_LEVEL_3_FIRERATE_IN_SECONDS : int
        {static} + TOWER_BOOMBASTIC_LEVEL_3_RANGE_IN_PIXELS : int
        {static} + TOWER_BOOMBASTIC_LEVEL_4_COSTS : int
        {static} + TOWER_BOOMBASTIC_LEVEL_4_DAMAGE : int
        {static} + TOWER_BOOMBASTIC_LEVEL_4_FIRERATE_IN_SECONDS : int
        {static} + TOWER_BOOMBASTIC_LEVEL_4_RANGE_IN_PIXELS : int
        {static} + TOWER_FREEZER_LEVEL_1_COSTS : int
        {static} + TOWER_FREEZER_LEVEL_1_DAMAGE : int
        {static} + TOWER_FREEZER_LEVEL_1_FIRERATE_IN_SECONDS : int
        {static} + TOWER_FREEZER_LEVEL_1_RANGE_IN_PIXELS : int
        {static} + TOWER_FREEZER_LEVEL_1_SLOWNESS : int
        {static} + TOWER_FREEZER_LEVEL_1_TOWER_SIZE_PARAMS : LayoutParams
        {static} + TOWER_FREEZER_LEVEL_2_COSTS : int
        {static} + TOWER_FREEZER_LEVEL_2_DAMAGE : int
        {static} + TOWER_FREEZER_LEVEL_2_FIRERATE_IN_SECONDS : int
        {static} + TOWER_FREEZER_LEVEL_2_RANGE_IN_PIXELS : int
        {static} + TOWER_FREEZER_LEVEL_2_SLOWNESS : int
        {static} + TOWER_FREEZER_LEVEL_3_COSTS : int
        {static} + TOWER_FREEZER_LEVEL_3_DAMAGE : int
        {static} + TOWER_FREEZER_LEVEL_3_FIRERATE_IN_SECONDS : int
        {static} + TOWER_FREEZER_LEVEL_3_RANGE_IN_PIXELS : int
        {static} + TOWER_FREEZER_LEVEL_3_SLOWNESS : int
        {static} + TOWER_FREEZER_LEVEL_4_COSTS : int
        {static} + TOWER_FREEZER_LEVEL_4_DAMAGE : int
        {static} + TOWER_FREEZER_LEVEL_4_FIRERATE_IN_SECONDS : int
        {static} + TOWER_FREEZER_LEVEL_4_RANGE_IN_PIXELS : int
        {static} + TOWER_FREEZER_LEVEL_4_SLOWNESS : int
        {static} + TOWER_LASER_LEVEL_1_COSTS : int
        {static} + TOWER_LASER_LEVEL_1_DAMAGE : int
        {static} + TOWER_LASER_LEVEL_1_FIRERATE_IN_SECONDS : int
        {static} + TOWER_LASER_LEVEL_1_RANGE_IN_PIXELS : int
        {static} + TOWER_LASER_LEVEL_1_TOWER_SIZE_PARAMS : LayoutParams
        {static} + TOWER_LASER_LEVEL_2_COSTS : int
        {static} + TOWER_LASER_LEVEL_2_DAMAGE : int
        {static} + TOWER_LASER_LEVEL_2_FIRERATE_IN_SECONDS : int
        {static} + TOWER_LASER_LEVEL_2_RANGE_IN_PIXELS : int
        {static} + TOWER_LASER_LEVEL_3_COSTS : int
        {static} + TOWER_LASER_LEVEL_3_DAMAGE : int
        {static} + TOWER_LASER_LEVEL_3_FIRERATE_IN_SECONDS : int
        {static} + TOWER_LASER_LEVEL_3_RANGE_IN_PIXELS : int
        {static} + TOWER_LASER_LEVEL_4_COSTS : int
        {static} + TOWER_LASER_LEVEL_4_DAMAGE : int
        {static} + TOWER_LASER_LEVEL_4_FIRERATE_IN_SECONDS : int
        {static} + TOWER_LASER_LEVEL_4_RANGE_IN_PIXELS : int
        {static} + TOWER_PLASMARIZER_LEVEL_1_COSTS : int
        {static} + TOWER_PLASMARIZER_LEVEL_1_DAMAGE : int
        {static} + TOWER_PLASMARIZER_LEVEL_1_FIRERATE_IN_SECONDS : int
        {static} + TOWER_PLASMARIZER_LEVEL_1_RANGE_IN_PIXELS : int
        {static} + TOWER_PLASMARIZER_LEVEL_1_TOWER_SIZE_PARAMS : LayoutParams
        {static} + TOWER_PLASMARIZER_LEVEL_2_COSTS : int
        {static} + TOWER_PLASMARIZER_LEVEL_2_DAMAGE : int
        {static} + TOWER_PLASMARIZER_LEVEL_2_FIRERATE_IN_SECONDS : int
        {static} + TOWER_PLASMARIZER_LEVEL_2_RANGE_IN_PIXELS : int
        {static} + TOWER_PLASMARIZER_LEVEL_3_COSTS : int
        {static} + TOWER_PLASMARIZER_LEVEL_3_DAMAGE : int
        {static} + TOWER_PLASMARIZER_LEVEL_3_FIRERATE_IN_SECONDS : int
        {static} + TOWER_PLASMARIZER_LEVEL_3_RANGE_IN_PIXELS : int
        {static} + TOWER_PLASMARIZER_LEVEL_4_COSTS : int
        {static} + TOWER_PLASMARIZER_LEVEL_4_DAMAGE : int
        {static} + TOWER_PLASMARIZER_LEVEL_4_FIRERATE_IN_SECONDS : int
        {static} + TOWER_PLASMARIZER_LEVEL_4_RANGE_IN_PIXELS : int
        {static} + startGameDelay : int
      }

      class de.dhbw.util.DifficultyFragmentAdapter #orange {
        {static} - NUM_PAGES : int
        + DifficultyFragmentAdapter()
        + getCount()
        + getItem()
      }

      enum Direction #orange {
        DOWN
        LEFT
        RIGHT
        UP
      }

      class de.dhbw.util.Position #orange {
        - x : int
        - y : int
        + Position()
        + equals()
        + getX()
        + getY()
        + toString()
      }

      class de.dhbw.util.PreferenceManager #orange {
        - context : Context
        - editorSettings : Editor
        - editorStatistics : Editor
        {static} - pref_DHTD_Settings : String
        {static} - pref_DHTD_Statistics : String
        {static} - preferenceManager : PreferenceManager
        - preferencesSettings : SharedPreferences
        - preferencesStatistics : SharedPreferences
        {static} + getSettingsValue()
        {static} + getStatisticsValue()
        {static} + init()
        {static} + removeSettingsValue()
        {static} + removeStatisticsValue()
        {static} + setSettingsValue()
        {static} + setStatisticsValue()
        - PreferenceManager()
      }

      enum Statistics #orange {
        BUILT_TOWERS
        EASY_BUILT_TOWERS
        EASY_ENEMIES_KILLED
        EASY_MAX_WAVE
        EASY_MONEY_SPENT
        EASY_UPGRADES
        ENEMIES_KILLED
        HARD_BUILT_TOWERS
        HARD_ENEMIES_KILLED
        HARD_MAX_WAVE
        HARD_MONEY_SPENT
        HARD_UPGRADES
        MAX_WAVE
        MEDIUM_BUILT_TOWERS
        MEDIUM_ENEMIES_KILLED
        MEDIUM_MAX_WAVE
        MEDIUM_MONEY_SPENT
        MEDIUM_UPGRADES
        MONEY_SPENT
        UPGRADES
      }

      class de.dhbw.util.SortingUtil #orange {
        {static} + getSortedListBySortingMapByValue()
        {static} + sortListByMovedSteps()
      }

    }

  }


  legend
    |= |= Type |
    |<back:lightblue>   </back>| View |
    |<back:lightgreen>   </back>| Controller |
    |<back:orange>   </back>| Model |
  endlegend


  de.dhbw.activities.DifficultyFragment -up-|> androidx.fragment.app.Fragment
  de.dhbw.activities.DifficultyFragment o-- de.dhbw.game.Difficulty : difficulty
  de.dhbw.activities.GameActivity .up.|> de.dhbw.game.IStatusBar
  de.dhbw.activities.GameActivity -up-|> androidx.appcompat.app.AppCompatActivity
  de.dhbw.activities.GameActivity o-- de.dhbw.game.Game : game
  de.dhbw.activities.MainActivity .up.|> de.dhbw.game.settings.ISettingsManager
  de.dhbw.activities.MainActivity -up-|> androidx.appcompat.app.AppCompatActivity
  de.dhbw.game.Game o-- de.dhbw.util.Position : circleField
  de.dhbw.game.Game o-- de.dhbw.game.StatusBarCountDownTimer : countDownTimer
  de.dhbw.game.Game o-- de.dhbw.activities.GameActivity : gameActivity
  de.dhbw.game.Game o-- de.dhbw.map.structure.MapStructure : mapStructure
  de.dhbw.game.Game o-- de.dhbw.game.match.AMatch : match
  de.dhbw.game.Game o-- de.dhbw.map.matchfield.MatchField : matchField
  de.dhbw.game.Game o-- de.dhbw.game.IMoneyListener : moneyListener
  de.dhbw.game.Game o-- de.dhbw.game.MusicPlayer : musicPLayer
  de.dhbw.game.MusicPlayer -up-|> de.dhbw.game.ATimerUsage
  de.dhbw.game.StatusBarCountDownTimer o-- de.dhbw.game.IStatusBar : status
  de.dhbw.game.match.AMatch -up-|> de.dhbw.game.ATimerUsage
  de.dhbw.game.match.AMatch o-- de.dhbw.game.Difficulty : difficulty
  de.dhbw.game.match.EasyMatch -up-|> de.dhbw.game.match.AMatch
  de.dhbw.game.match.HardMatch -up-|> de.dhbw.game.match.AMatch
  de.dhbw.game.match.MediumMatch -up-|> de.dhbw.game.match.AMatch
  de.dhbw.game.popups.AMenu -up-|> android.app.Activity
  de.dhbw.game.popups.MenuSettings .up.|> de.dhbw.game.settings.ISettingsManager
  de.dhbw.game.popups.MenuSettings -up-|> de.dhbw.game.popups.AMenu
  de.dhbw.game.popups.MenuTowerSelection .up.|> de.dhbw.game.IMoneyListener
  de.dhbw.game.popups.MenuTowerSelection -up-|> de.dhbw.game.popups.AMenu
  de.dhbw.game.popups.MenuTowerSelection o-- de.dhbw.util.Position : position
  de.dhbw.game.popups.MenuUpgradeAndSell .up.|> de.dhbw.game.IMoneyListener
  de.dhbw.game.popups.MenuUpgradeAndSell -up-|> de.dhbw.game.popups.AMenu
  de.dhbw.game.popups.MenuUpgradeAndSell o-- de.dhbw.util.Position : pos
  de.dhbw.game.wave.AWave -up-|> de.dhbw.game.ATimerUsage
  de.dhbw.game.wave.Wave -up-|> de.dhbw.game.wave.AWave
  de.dhbw.game.wave.WaveComposition o-- de.dhbw.game.EnemyType : type
  de.dhbw.map.matchfield.MatchField o-- de.dhbw.activities.GameActivity : gameActivity
  de.dhbw.map.matchfield.MatchField o-- de.dhbw.util.AdvancedTimer : matchFieldTimer
  de.dhbw.map.objects.bullet.ABullet o-- de.dhbw.activities.GameActivity : gameActivity
  de.dhbw.map.objects.bullet.ABullet o-- de.dhbw.map.objects.enemy.AEnemy : targetEnemy
  de.dhbw.map.objects.bullet.ABullet o-- de.dhbw.util.Position : targetPos
  de.dhbw.map.objects.bullet.Bomb -up-|> de.dhbw.map.objects.bullet.ABullet
  de.dhbw.map.objects.bullet.LaserRay -up-|> de.dhbw.map.objects.bullet.ABullet
  de.dhbw.map.objects.bullet.LaserRay o-- de.dhbw.map.objects.bullet.LaserRay.LaserView : laserView
  de.dhbw.map.objects.bullet.LaserRay +-down- de.dhbw.map.objects.bullet.LaserRay.LaserView
  de.dhbw.map.objects.bullet.LaserRay.LaserView -up-|> android.view.View
  de.dhbw.map.objects.bullet.LaserRay.LaserView o-- de.dhbw.util.Position : from
  de.dhbw.map.objects.bullet.LaserRay.LaserView o-- de.dhbw.util.Position : to
  de.dhbw.map.objects.bullet.PlasmaBall -up-|> de.dhbw.map.objects.bullet.ABullet
  de.dhbw.map.objects.bullet.Projectile -up-|> de.dhbw.map.objects.bullet.ABullet
  de.dhbw.map.objects.bullet.SnowFlake -up-|> de.dhbw.map.objects.bullet.ABullet
  de.dhbw.map.objects.enemy.AEnemy o-- de.dhbw.map.structure.Field : actualField
  de.dhbw.map.objects.enemy.AEnemy o-- de.dhbw.activities.GameActivity : gameActivity
  de.dhbw.map.objects.enemy.AEnemy o-- de.dhbw.util.Direction : direction
  de.dhbw.map.objects.enemy.AEnemy o-- de.dhbw.game.EnemyType : enemyType
  de.dhbw.map.objects.enemy.AEnemy o-- de.dhbw.map.objects.enemy.EnemyView : enemyView
  de.dhbw.map.objects.enemy.BossTank -up-|> de.dhbw.map.objects.enemy.AEnemy
  de.dhbw.map.objects.enemy.BossTank o-- de.dhbw.map.objects.enemy.Car : car
  de.dhbw.map.objects.enemy.Car -up-|> de.dhbw.map.objects.enemy.AEnemy
  de.dhbw.map.objects.enemy.EnemyView o-- de.dhbw.activities.GameActivity : gameActivity
  de.dhbw.map.objects.enemy.Plane -up-|> de.dhbw.map.objects.enemy.AEnemy
  de.dhbw.map.objects.enemy.Tank -up-|> de.dhbw.map.objects.enemy.AEnemy
  de.dhbw.map.objects.tower.ATower -up-|> de.dhbw.game.ATimerUsage
  de.dhbw.map.objects.tower.ATower o-- de.dhbw.activities.GameActivity : gameActivity
  de.dhbw.map.objects.tower.ATower o-- de.dhbw.map.objects.enemy.AEnemy : targetedEnemy
  de.dhbw.map.objects.tower.ATower o-- de.dhbw.map.structure.Field : field
  de.dhbw.map.objects.tower.ATower o-- de.dhbw.map.objects.tower.TowerType : towerType
  de.dhbw.map.objects.tower.TowerArtillery -up-|> de.dhbw.map.objects.tower.ATower
  de.dhbw.map.objects.tower.TowerBoombastic -up-|> de.dhbw.map.objects.tower.ATower
  de.dhbw.map.objects.tower.TowerFreezer -up-|> de.dhbw.map.objects.tower.ATower
  de.dhbw.map.objects.tower.TowerLaser -up-|> de.dhbw.map.objects.tower.ATower
  de.dhbw.map.objects.tower.TowerLaser o-- de.dhbw.map.objects.bullet.LaserRay : bullet
  de.dhbw.map.objects.tower.TowerPlasmarizer -up-|> de.dhbw.map.objects.tower.ATower
  de.dhbw.map.structure.Field o-- de.dhbw.map.structure.FieldDescription : fieldDescription
  de.dhbw.util.DifficultyFragmentAdapter -up-|> androidx.fragment.app.FragmentPagerAdapter
  de.dhbw.util.Position .up.|> java.io.Serializable
  de.dhbw.util.PreferenceManager +-down- de.dhbw.util.PreferenceManager.Statistics


@enduml
